# xmcd
#
# Track frame offsets:
#	150
#	16318
#	33871
#	48538
#	69068
#	84681
#	99807
#	113649
#	133090
#	149583
#	165556
#	181178
#	197163
#	209909
#	227367
#	235883
#	255234
#	271107
#	287732
#	296934
#	316089
#	331615
#	343204
#
# Disc length: 4765 seconds
#
# Revision: 0
# Processed by: cddbd v1.5.2PL0 Copyright (c) Steve Scherf et al.
# Submitted via: EasyCDDAExtractor 16.0.8.2
#
DISCID=46129b17
DTITLE=Συλλογικός δίσκος - Το δημοτικό τραγούδι είναι εδώ 3.2
DYEAR=2004
DGENRE=Παραδοσιακή
TTITLE0=Κυρίτσης Αντώνης - Βλαχοθανάσης
TTITLE1=Βέρα Τασία - Ένας αητός
TTITLE2=Παπαθεοδοσίου Μπία - Νά 'χα τη χάρη σου, αητέ
TTITLE3=Ανδριόπουλος Ανδρέας - Ο Τριτσιμπίδας
TTITLE4=Διαμάντη Βάσω - Το φεγγαράκι
TTITLE5=Πολυχρονοπούλου Μαρίνα - Το λένε οι κούκοι στα βουνά
TTITLE6=Βέρα Τασία - Τα νιάτα
TTITLE7=Διαμάντη Βάσω - Απόψε μαυρομάτα μου
TTITLE8=Πολυχρονοπούλου Μαρίνα - Εσείς βουνά μου όμορφα
TTITLE9=Βέρας Σπύρος - Η Μαλάμω
TTITLE10=Διαμάντη Βάσω - Με μάρανε η ποδιά σου
TTITLE11=Πολυχρονοπούλου Μαρίνα - Να χαμηλώναν τα βουνά
TTITLE12=Ανδριόπουλος Ανδρέας - Πέρα εκεί στην αετοράχη
TTITLE13=Βέρα Τασία - Νά 'χα νεράντζι νά 'ριχνα
TTITLE14=Βέρας Σπύρος - Βλάχα από το Καρπενήσι
TTITLE15=Κυρίτσης Αντώνης - Γιάννη μου, το μαντήλι σου
TTITLE16=Παπαθεοδοσίου Μπία - Τα μάγια
TTITLE17=Κυρίτσης Αντώνης - Κοντούλα Λεμονιά
TTITLE18=Κανελόπουλος Κώστας - Μήλο μου κόκκινο
TTITLE19=Παπαθεοδοσίου Μπία - Όσα βουνά
TTITLE20=Μπισμπίκη Μαρίκα - Σαν λουλούδι του βουνού
TTITLE21=Μπισμπίκη Μαρίκα - Τ΄άσπρα να βάλεις σήμερα
TTITLE22=Μπισμπίκη Μαρίκα - Κόρη που πας στον ποταμό
EXTD=
EXTT0=
EXTT1=
EXTT2=
EXTT3=
EXTT4=
EXTT5=
EXTT6=
EXTT7=
EXTT8=
EXTT9=
EXTT10=
EXTT11=
EXTT12=
EXTT13=
EXTT14=
EXTT15=
EXTT16=
EXTT17=
EXTT18=
EXTT19=
EXTT20=
EXTT21=
EXTT22=
PLAYORDER=
